<?xml version="1.0" standalone="no"?>
<!DOCTYPE svg PUBLIC "-//W3C//DTD SVG 20010904//EN"
 "http://www.w3.org/TR/2001/REC-SVG-20010904/DTD/svg10.dtd">
<svg version="1.0" xmlns="http://www.w3.org/2000/svg"
 width="300.000000pt" height="300.000000pt" viewBox="0 0 300.000000 300.000000"
 preserveAspectRatio="xMidYMid meet">
<metadata>
Created by potrace 1.10, written by Peter Selinger 2001-2011
</metadata>
<g transform="translate(0.000000,300.000000) scale(0.100000,-0.100000)"
fill="#000000" stroke="none">
<path d="M900 2700 l0 -160 318 0 c352 -1 439 -8 519 -45 71 -32 166 -128 199
-199 78 -171 45 -358 -87 -487 -70 -69 -142 -105 -234 -119 -38 -5 -215 -10
-392 -10 l-323 0 0 -491 0 -491 -25 -29 c-75 -91 -10 -216 108 -206 99 9 148
109 93 190 l-26 38 0 344 0 345 65 0 65 0 0 -543 c0 -532 0 -544 -20 -562 -60
-55 -40 -164 38 -199 51 -23 101 -15 143 22 42 38 51 105 20 155 -21 34 -21
41 -21 580 l0 546 213 3 c203 3 215 4 275 29 193 82 332 218 415 406 39 87 57
181 57 293 0 122 -19 209 -68 314 -84 178 -212 302 -385 375 -135 55 -189 61
-587 61 l-360 0 0 -160z"/>
</g>
</svg>
