<svg version="1.1" id="Layer_1" xmlns="http://www.w3.org/2000/svg" xmlns:xlink="http://www.w3.org/1999/xlink" x="0px" y="0px"
	 width="100%" viewBox="0 0 1080 1080" enable-background="new 0 0 1080 1080" xml:space="preserve">
<path fill="#FFFFFF" opacity="1.000000" stroke="none" 
	d="
M722.000000,1081.000000 
	C481.361053,1081.000000 241.222092,1081.000000 1.041571,1081.000000 
	C1.041571,721.069275 1.041571,361.138519 1.041571,1.103884 
	C360.889160,1.103884 720.778381,1.103884 1080.833740,1.103884 
	C1080.833740,360.999939 1080.833740,720.999939 1080.833740,1081.000000 
	C961.471375,1081.000000 841.985657,1081.000000 722.000000,1081.000000 
M418.500305,98.512993 
	C356.417847,98.512993 294.335388,98.512993 232.278900,98.512993 
	C232.278900,134.346786 232.278900,169.443649 232.278900,204.998505 
	C234.509750,204.998505 236.468155,204.998627 238.426544,204.998474 
	C306.755157,204.993332 375.083832,204.939545 443.412354,205.010223 
	C466.298248,205.033890 488.390900,208.833786 508.890076,219.710434 
	C527.968018,229.832993 543.707092,243.625656 556.790894,260.872894 
	C567.720337,275.280243 575.054749,291.116150 579.337952,308.516846 
	C583.680603,326.159119 584.131836,343.934479 581.999329,361.982391 
	C579.918518,379.591858 574.165649,395.768982 565.431152,411.017609 
	C556.483765,426.638031 544.672668,439.715576 530.670593,451.038391 
	C516.113770,462.809784 499.805176,470.800842 481.900848,475.879730 
	C464.048859,480.943787 445.636658,480.688324 427.439636,480.824615 
	C364.280792,481.297607 301.116241,481.006836 237.953873,481.006592 
	C236.041306,481.006592 234.128738,481.006592 232.002167,481.006592 
	C232.002167,484.634705 232.001740,487.458496 232.002243,490.282318 
	C232.012772,548.944885 232.028183,607.607422 232.032471,666.269958 
	C232.035736,710.933533 232.064087,755.597290 231.908356,800.260376 
	C231.900299,802.573914 230.923889,805.662659 229.272385,807.053772 
	C222.987289,812.348022 218.612183,818.681458 215.976379,826.440002 
	C210.715622,841.925110 216.399826,860.213135 229.318909,870.346802 
	C245.875198,883.333557 269.700134,883.748352 286.035370,868.806335 
	C303.642059,852.701233 304.672150,825.779358 285.603607,808.478149 
	C282.680817,805.826233 281.405029,803.546631 281.409607,799.731201 
	C281.494751,728.736084 281.470703,657.740845 281.469666,586.745667 
	C281.469635,585.128235 281.469696,583.510864 281.469696,581.845947 
	C295.781036,581.845947 309.487976,581.845947 323.509674,581.845947 
	C323.509674,583.931946 323.509674,585.579224 323.509705,587.226501 
	C323.510651,699.218933 323.483856,811.211426 323.584106,923.203796 
	C323.589874,929.657898 324.106018,935.884949 317.132874,939.406311 
	C316.448364,939.751953 316.022491,940.614258 315.483521,941.242676 
	C296.626007,963.233093 306.134613,994.973145 331.099762,1005.426697 
	C349.964355,1013.325806 371.945679,1007.859802 383.761139,990.638428 
	C394.476807,975.020081 394.269379,955.539490 378.948822,939.130737 
	C376.645874,936.664185 375.944305,934.445740 375.945526,931.320007 
	C375.990692,816.661194 375.970428,702.002441 375.959167,587.343628 
	C375.958984,585.536743 375.959137,583.729797 375.959137,581.395020 
	C379.190186,581.395020 381.992737,581.393860 384.795288,581.395264 
	C421.125702,581.413025 457.456085,581.438782 493.786499,581.431458 
	C496.105255,581.430969 498.576721,581.648560 500.718140,580.959717 
	C515.709717,576.136963 531.097900,572.167358 545.473022,565.894165 
	C569.074463,555.594666 590.548889,541.501099 609.799988,524.259705 
	C634.132568,502.467377 652.841064,476.532440 666.832336,447.039276 
	C675.108032,429.594238 681.634644,411.568542 685.103455,392.620026 
	C687.397095,380.091431 688.430664,367.322693 689.804016,354.637177 
	C692.047913,333.910797 689.577087,313.371002 685.451721,293.188629 
	C679.897827,266.017548 669.517273,240.576996 655.265930,216.647675 
	C644.059998,197.831909 630.588379,181.014908 614.817688,165.898102 
	C597.272766,149.080765 577.540710,135.403183 555.775208,124.738670 
	C546.580627,120.233543 536.961182,116.573380 527.447754,112.745712 
	C509.454834,105.506386 490.612305,101.409721 471.392670,99.958618 
	C454.157074,98.657310 436.802460,98.933029 418.500305,98.512993 
z"/>
<path fill="#010101" opacity="1.000000" stroke="none" 
	d="
M419.000305,98.513016 
	C436.802460,98.933029 454.157074,98.657310 471.392670,99.958618 
	C490.612305,101.409721 509.454834,105.506386 527.447754,112.745712 
	C536.961182,116.573380 546.580627,120.233543 555.775208,124.738670 
	C577.540710,135.403183 597.272766,149.080765 614.817688,165.898102 
	C630.588379,181.014908 644.059998,197.831909 655.265930,216.647675 
	C669.517273,240.576996 679.897827,266.017548 685.451721,293.188629 
	C689.577087,313.371002 692.047913,333.910797 689.804016,354.637177 
	C688.430664,367.322693 687.397095,380.091431 685.103455,392.620026 
	C681.634644,411.568542 675.108032,429.594238 666.832336,447.039276 
	C652.841064,476.532440 634.132568,502.467377 609.799988,524.259705 
	C590.548889,541.501099 569.074463,555.594666 545.473022,565.894165 
	C531.097900,572.167358 515.709717,576.136963 500.718140,580.959717 
	C498.576721,581.648560 496.105255,581.430969 493.786499,581.431458 
	C457.456085,581.438782 421.125702,581.413025 384.795288,581.395264 
	C381.992737,581.393860 379.190186,581.395020 375.959137,581.395020 
	C375.959137,583.729797 375.958984,585.536743 375.959167,587.343628 
	C375.970428,702.002441 375.990692,816.661194 375.945526,931.320007 
	C375.944305,934.445740 376.645874,936.664185 378.948822,939.130737 
	C394.269379,955.539490 394.476807,975.020081 383.761139,990.638428 
	C371.945679,1007.859802 349.964355,1013.325806 331.099762,1005.426697 
	C306.134613,994.973145 296.626007,963.233093 315.483521,941.242676 
	C316.022491,940.614258 316.448364,939.751953 317.132874,939.406311 
	C324.106018,935.884949 323.589874,929.657898 323.584106,923.203796 
	C323.483856,811.211426 323.510651,699.218933 323.509705,587.226501 
	C323.509674,585.579224 323.509674,583.931946 323.509674,581.845947 
	C309.487976,581.845947 295.781036,581.845947 281.469696,581.845947 
	C281.469696,583.510864 281.469635,585.128235 281.469666,586.745667 
	C281.470703,657.740845 281.494751,728.736084 281.409607,799.731201 
	C281.405029,803.546631 282.680817,805.826233 285.603607,808.478149 
	C304.672150,825.779358 303.642059,852.701233 286.035370,868.806335 
	C269.700134,883.748352 245.875198,883.333557 229.318909,870.346802 
	C216.399826,860.213135 210.715622,841.925110 215.976379,826.440002 
	C218.612183,818.681458 222.987289,812.348022 229.272385,807.053772 
	C230.923889,805.662659 231.900299,802.573914 231.908356,800.260376 
	C232.064087,755.597290 232.035736,710.933533 232.032471,666.269958 
	C232.028183,607.607422 232.012772,548.944885 232.002243,490.282318 
	C232.001740,487.458496 232.002167,484.634705 232.002167,481.006592 
	C234.128738,481.006592 236.041306,481.006592 237.953873,481.006592 
	C301.116241,481.006836 364.280792,481.297607 427.439636,480.824615 
	C445.636658,480.688324 464.048859,480.943787 481.900848,475.879730 
	C499.805176,470.800842 516.113770,462.809784 530.670593,451.038391 
	C544.672668,439.715576 556.483765,426.638031 565.431152,411.017609 
	C574.165649,395.768982 579.918518,379.591858 581.999329,361.982391 
	C584.131836,343.934479 583.680603,326.159119 579.337952,308.516846 
	C575.054749,291.116150 567.720337,275.280243 556.790894,260.872894 
	C543.707092,243.625656 527.968018,229.832993 508.890076,219.710434 
	C488.390900,208.833786 466.298248,205.033890 443.412354,205.010223 
	C375.083832,204.939545 306.755157,204.993332 238.426544,204.998474 
	C236.468155,204.998627 234.509750,204.998505 232.278900,204.998505 
	C232.278900,169.443649 232.278900,134.346786 232.278900,98.512993 
	C294.335388,98.512993 356.417847,98.512993 419.000305,98.513016 
z"/>
</svg>