<?xml version="1.0" encoding="UTF-8"?>
<svg version="1.1" xmlns="http://www.w3.org/2000/svg" width="1280" height="720">
<path d="M0 0 C37.40121575 -0.1209091 37.40121575 -0.1209091 53.21484375 -0.14648438 C64.08353988 -0.16420468 74.95216565 -0.18490204 85.82080078 -0.22631836 C93.74047913 -0.25648258 101.66009977 -0.27563616 109.57983398 -0.28226548 C113.76246297 -0.28613266 117.94492702 -0.29503788 122.12750244 -0.31719017 C174.76547457 -0.58478992 220.00656996 10.29998413 258.87890625 47.83984375 C263.31664691 52.25341517 267.23196491 57.00772004 271 62 C271.66257812 62.84691406 272.32515625 63.69382813 273.0078125 64.56640625 C298.77421308 98.46690584 309.78996685 142.29068436 304.71386719 184.37207031 C304.02662029 189.29769438 303.08165885 194.14718518 302 199 C301.73445313 200.22589844 301.46890625 201.45179688 301.1953125 202.71484375 C296.10332345 223.82632045 285.84228615 243.60225049 273 261 C272.41089844 261.8146875 271.82179688 262.629375 271.21484375 263.46875 C253.28077317 287.11807385 228.79143899 303.65440319 201.625 314.9375 C200.30677246 315.48615723 200.30677246 315.48615723 198.96191406 316.04589844 C185.68412904 321.35601897 173.79927058 322.42026507 159.671875 322.29296875 C157.82814888 322.28736192 155.98441825 322.28309697 154.14068604 322.28010559 C149.32712094 322.26874234 144.51383463 322.23935017 139.70037842 322.20599365 C134.77294687 322.17510738 129.84546954 322.16156089 124.91796875 322.14648438 C115.27852447 322.11447094 105.63928557 322.06337979 96 322 C95.99066604 352.05629452 96.01192359 382.11244937 96.07579029 412.16867542 C96.08330619 415.71840686 96.0905617 419.26813879 96.09765625 422.81787109 C96.099073 423.52454831 96.10048975 424.23122553 96.10194944 424.95931721 C96.124258 436.3964561 96.12548079 447.83350475 96.11888863 459.27065933 C96.11259287 471.00934903 96.12900889 482.74784915 96.16643608 494.48648167 C96.18647117 501.078677 96.19599178 507.67051044 96.18042374 514.26272583 C96.16610029 520.46807632 96.17980006 526.67273507 96.21495247 532.87799644 C96.22291826 535.15477961 96.22066368 537.43162514 96.20739174 539.70838356 C96.1907882 542.81991732 96.2111071 545.92913665 96.24050903 549.04052734 C96.22012988 550.38880537 96.22012988 550.38880537 96.19933903 551.76432133 C96.30654104 557.61082753 97.68542296 560.79716239 101.53109539 565.21561623 C105.44687858 569.97239888 106.53670782 575.67294192 106.27734375 581.7109375 C105.30841568 589.70800582 102.15771206 595.7464873 96 601 C88.23116637 605.81667685 81.12833577 607.92985917 72 607 C64.36285049 605.01411417 57.93135646 601.37799991 53.49609375 594.75390625 C49.30743779 587.48640916 47.88432322 581.03898438 49.42578125 572.6953125 C51.11843152 566.69315386 54.32799777 562.13162607 59 558 C59.66 558 60.32 558 61 558 C61 480.12 61 402.24 61 322 C51.76 322 42.52 322 33 322 C33 371.5 33 421 33 472 C34.32 472.66 35.64 473.32 37 474 C42.42583218 480.49022988 45.49910277 487.13387508 45.2421875 495.640625 C44.41893617 503.66068635 41.14098442 509.76075865 35 515 C27.23116637 519.81667685 20.12833577 521.92985917 11 521 C3.36285049 519.01411417 -3.06864354 515.37799991 -7.50390625 508.75390625 C-11.69256221 501.48640916 -13.11567678 495.03898438 -11.57421875 486.6953125 C-9.88156848 480.69315386 -6.67200223 476.13162607 -2 472 C-1.34 472 -0.68 472 0 472 C0 400.39 0 328.78 0 255 C72.4375 254.625 72.4375 254.625 95.22436523 254.52197266 C102.02461256 254.4820185 102.02461256 254.4820185 108.82484436 254.43954468 C111.8299264 254.42084206 114.83498009 254.40739865 117.84010315 254.39730835 C152.42366283 254.27564571 180.90407871 252.20697307 207.5234375 227.53125 C226.15359344 208.48970261 233.2840855 185.2745111 233.31689453 159.12207031 C233.08603103 138.66357346 226.32889846 121.25172979 214 105 C213.49726563 104.32324219 212.99453125 103.64648438 212.4765625 102.94921875 C198.23016564 85.03828628 175.24490216 74.77207489 153 72 C150.78463615 71.90550185 148.56708841 71.85453543 146.3497467 71.84178162 C145.05275848 71.8319928 143.75577026 71.82220398 142.41947937 71.81211853 C140.99978674 71.80621585 139.58009373 71.80040531 138.16040039 71.79467773 C136.65199522 71.7850883 135.14359268 71.77507761 133.63519287 71.76467896 C129.55517588 71.73773914 125.47514745 71.71667073 121.3950913 71.69667697 C117.12563212 71.67474971 112.85620777 71.64739411 108.58677673 71.62062073 C100.5086468 71.57078472 92.43049745 71.5258123 84.35232967 71.48259836 C73.43160021 71.42389611 62.51091659 71.35765829 51.59022808 71.29184818 C34.39351632 71.18841578 17.19676498 71.09503209 0 71 C0 47.57 0 24.14 0 0 Z " fill="#000000" transform="translate(154,65)"/>
<path d="M0 0 C8.91 0 17.82 0 27 0 C27 4.29 27 8.58 27 13 C22.71 13 18.42 13 14 13 C14 50.95 14 88.9 14 128 C17.96 128 21.92 128 26 128 C29.30823887 131.30823887 27 137.32144372 27 142 C18.09 142 9.18 142 0 142 C-0.33 138.7 -0.66 135.4 -1 132 C-1.66644531 132.47050781 -2.33289063 132.94101562 -3.01953125 133.42578125 C-15.14948771 141.61986373 -27.46322272 143.86830401 -41.89453125 141.53125 C-48.22590227 139.85617861 -53.58957654 136.61664508 -59 133 C-59.886875 132.4225 -60.77375 131.845 -61.6875 131.25 C-70.36057815 122.81132937 -75.05854787 112.6376045 -75.53125 100.56640625 C-75.5391038 98.57252258 -75.54660846 96.57845764 -75.52148438 94.5847168 C-75.5000544 92.56762038 -75.52137764 90.55409771 -75.546875 88.53710938 C-75.49011898 74.11398664 -71.89481609 64.0968772 -61.86328125 53.80859375 C-52.81558297 45.23459695 -42.92356763 42.08983457 -30.5078125 41.96484375 C-18.15904483 42.51878191 -10.93396406 45.54952695 -1 53 C-0.67 35.51 -0.34 18.02 0 0 Z M-55 66 C-61.16278183 73.90016182 -62.37573798 82.09729283 -62.3125 91.875 C-62.30831055 92.75687988 -62.30412109 93.63875977 -62.29980469 94.54736328 C-62.13112161 104.25022897 -60.44979896 112.33676244 -53.50390625 119.5546875 C-46.12804652 126.40248337 -38.95305827 128.61873742 -28.95336914 128.46826172 C-19.46017586 128.04147581 -13.12526534 125.11392314 -6.69140625 118.16015625 C-0.48523535 110.23403036 0.22818137 102.72408229 0.3125 92.9375 C0.34150391 91.84244141 0.37050781 90.74738281 0.40039062 89.61914062 C0.48514956 78.67219837 -2.29418038 70.88618266 -9.84375 62.9140625 C-17.12178441 56.45348847 -24.9558445 55.63451724 -34.38671875 55.72265625 C-42.64532196 56.35655985 -49.46012786 59.86657013 -55 66 Z " fill="#020202" transform="translate(630,429)"/>
<path d="M0 0 C8.91 0 17.82 0 27 0 C26.67 17.49 26.34 34.98 26 53 C30.7286362 50.2999794 30.7286362 50.2999794 35.44921875 47.5859375 C46.8851119 41.3989796 59.47769438 40.64685661 72.05078125 43.75390625 C82.92799364 47.34955461 91.99576832 54.77454233 97.578125 64.84765625 C101.80414564 73.87045319 102.23513406 81.61779103 102.3125 91.5 C102.35600586 93.30597656 102.35600586 93.30597656 102.40039062 95.1484375 C102.48454417 107.18886767 100.2561908 117.94028698 92 127 C91.52175781 127.59167969 91.04351563 128.18335938 90.55078125 128.79296875 C83.65422453 136.66233951 72.79347605 141.54159066 62.46875 142.23828125 C48.94096998 142.49126139 38.34840365 139.6851492 27 132 C27 135.3 27 138.6 27 142 C18.09 142 9.18 142 0 142 C0 129 0 129 1 128 C4.96 128 8.92 128 13 128 C13 90.05 13 52.1 13 13 C8.71 13 4.42 13 0 13 C0 8.71 0 4.42 0 0 Z M33 67 C25.66675747 75.78500121 25.32334674 87.00078529 26 98 C26.95584367 108.07001498 30.24794451 115.32962667 38 122 C47.06517611 128.40001434 55.13379169 128.7449898 66 128 C72.75865015 126.4175798 78.49155847 122.20582573 83 117 C90.35448556 104.99193176 90.83509228 90.98290201 88.31640625 77.28125 C85.18466116 68.02895747 79.64818119 62.98819278 71.3671875 58.1640625 C57.79531022 51.49010304 42.76387898 56.59656563 33 67 Z " fill="#020202" transform="translate(789,429)"/>
<path d="M0 0 C-0.01160156 -0.71027344 -0.02320313 -1.42054688 -0.03515625 -2.15234375 C-0.04417969 -3.07144531 -0.05320312 -3.99054688 -0.0625 -4.9375 C-0.07410156 -5.85402344 -0.08570313 -6.77054687 -0.09765625 -7.71484375 C0 -10 0 -10 1 -11 C2.85369611 -11.08737645 4.71067541 -11.10698153 6.56640625 -11.09765625 C7.69111328 -11.09443359 8.81582031 -11.09121094 9.97460938 -11.08789062 C11.15861328 -11.07951172 12.34261719 -11.07113281 13.5625 -11.0625 C14.75037109 -11.05798828 15.93824219 -11.05347656 17.16210938 -11.04882812 C20.10809412 -11.03699686 23.05405316 -11.01906076 26 -11 C26 -6.38 26 -1.76 26 3 C21.71 3 17.42 3 13 3 C13 26.76 13 50.52 13 75 C17.29 75 21.58 75 26 75 C26 79.62 26 84.24 26 89 C17.42 89 8.84 89 0 89 C0 85.37 0 81.74 0 78 C-0.71285156 78.47050781 -1.42570313 78.94101562 -2.16015625 79.42578125 C-15.18795194 87.89472515 -26.98716144 91.0748247 -42.55078125 88.38671875 C-54.70108784 85.08358151 -64.32830156 77.66842345 -71 67 C-78.15282278 51.90421704 -78.55484929 30.75521312 -73 15 C-67.87005721 4.25353447 -59.88708804 -3.50405825 -48.875 -8.03125 C-31.44843101 -13.90324607 -14.60120907 -10.81571042 0 0 Z M-56 14 C-61.51715626 22.22781864 -62.23191144 28.81128424 -62.3125 38.5625 C-62.34150391 39.70525391 -62.37050781 40.84800781 -62.40039062 42.02539062 C-62.46552245 50.78812559 -61.1448524 57.60699606 -55.9921875 64.8046875 C-47.83243362 72.78378262 -40.47455362 75.69413402 -29.04492188 75.60961914 C-20.31165919 75.17894618 -13.09877177 71.56599748 -7 65.3125 C-0.83929585 57.23881437 0.34779992 49.36808253 0.4375 39.4375 C0.4528479 38.12616089 0.4528479 38.12616089 0.46850586 36.78833008 C0.33705029 26.98064125 -1.95507641 18.10591859 -9 11 C-23.78682694 -0.92486043 -43.16942233 -0.3400574 -56 14 Z " fill="#020202" transform="translate(750,482)"/>
<path d="M0 0 C7.75763689 7.41451065 11.93524934 15.46140297 14.03125 25.94140625 C14.03125 32.54140625 14.03125 39.14140625 14.03125 45.94140625 C-10.71875 45.94140625 -35.46875 45.94140625 -60.96875 45.94140625 C-58.92435785 56.16336698 -57.17248139 63.42192737 -48.40625 69.44140625 C-40.0624957 74.55771905 -31.54026522 75.18814393 -21.96875 73.94140625 C-15.04819651 71.93023988 -10.47861618 69.15333767 -6.59375 63.06640625 C-5.03515625 60.734375 -5.03515625 60.734375 -2.96875 58.94140625 C1.78680734 58.1689566 6.25786624 58.40514538 11.03125 58.94140625 C9.9956099 67.97376108 4.07465682 74.76378127 -2.796875 80.41015625 C-13.86680314 88.21485379 -25.71493787 90.15789464 -38.96875 88.94140625 C-51.37766968 86.57577887 -61.68923344 79.16508284 -68.96875 68.94140625 C-74.49256295 58.9380833 -75.17220442 50.52375598 -75.21875 39.25390625 C-75.2496875 37.41022461 -75.2496875 37.41022461 -75.28125 35.52929688 C-75.33879261 22.04274834 -72.04330459 11.79015738 -62.8984375 1.64453125 C-45.5870133 -14.86026745 -18.2132332 -15.27667929 0 0 Z M-55.05078125 13.51171875 C-60.27486974 20.12960682 -60.96875 24.35062368 -60.96875 32.94140625 C-40.83875 32.94140625 -20.70875 32.94140625 0.03125 32.94140625 C0.03125 24.07836559 -1.5590111 18.07778378 -7.71875 11.56640625 C-15.57434192 4.2981483 -23.58310791 2.44517143 -34.10546875 2.67578125 C-43.18519274 3.30006965 -48.92157677 6.89434754 -55.05078125 13.51171875 Z " fill="#020202" transform="translate(1043.96875,482.05859375)"/>
<path d="M0 0 C8.69248465 8.01750005 14.52227611 17.58266316 15.22363281 29.68212891 C15.26942844 32.96397148 15.29776539 36.24520856 15.3125 39.52734375 C15.333125 40.65269531 15.35375 41.77804687 15.375 42.9375 C15.43716537 56.38076145 12.09335019 67.67105203 2.8125 77.65234375 C-7.77344662 87.51705005 -19.62588306 90.73240444 -33.74609375 90.24609375 C-45.71925182 89.48812761 -55.69459721 83.74245625 -63.75 75.02734375 C-75.42514611 60.73630405 -75.0503781 44.64721413 -73.9375 26.90234375 C-72.59402218 15.60798097 -66.1674314 6.10183709 -57.5 -1.03515625 C-40.49830603 -13.16264444 -16.27680926 -13.74809067 0 0 Z M-55.4765625 16.78125 C-62.44727906 26.87044502 -62.11520339 40.45316667 -60.3125 52.15234375 C-58.37712656 60.32392051 -53.99380813 67.08000898 -46.9765625 71.71875 C-38.62230867 76.56805826 -30.37809497 76.90846293 -20.9375 75.90234375 C-17.18500649 74.7332977 -14.16264486 73.12849537 -10.9375 70.90234375 C-10.35613281 70.52980469 -9.77476562 70.15726563 -9.17578125 69.7734375 C-2.60955998 65.02657225 0.52149299 57.39531536 1.78515625 49.6328125 C3.18096037 35.89102265 2.31579358 23.93195413 -6.46875 12.99609375 C-11.82165786 7.03719633 -17.6529392 4.34588953 -25.59765625 3.5234375 C-38.52176912 3.12238895 -47.23320911 6.71766376 -55.4765625 16.78125 Z " fill="#020202" transform="translate(521.9375,481.09765625)"/>
<path d="M0 0 C9.57 0 19.14 0 29 0 C29 42.24 29 84.48 29 128 C33.95 128 38.9 128 44 128 C45 129 45 129 45.1328125 131.6875 C45.13023437 132.780625 45.12765625 133.87375 45.125 135 C45.12886719 136.6396875 45.12886719 136.6396875 45.1328125 138.3125 C45 141 45 141 44 142 C42.61839885 142.0927833 41.23211962 142.11747043 39.84741211 142.11352539 C38.96657455 142.11344986 38.085737 142.11337433 37.1782074 142.11329651 C36.22092239 142.10813522 35.26363739 142.10297394 34.27734375 142.09765625 C33.30213272 142.0962413 32.32692169 142.09482635 31.32215881 142.09336853 C28.19390857 142.08775133 25.06572877 142.07519593 21.9375 142.0625 C19.82226666 142.05748722 17.70703219 142.05292393 15.59179688 142.04882812 C10.39450393 142.03777631 5.19726392 142.02050016 0 142 C0 137.38 0 132.76 0 128 C4.95 128 9.9 128 15 128 C15 90.05 15 52.1 15 13 C10.05 13 5.1 13 0 13 C0 8.71 0 4.42 0 0 Z " fill="#030303" transform="translate(907,429)"/>
<path d="M0 0 C8.58 0 17.16 0 26 0 C26.33 2.97 26.66 5.94 27 9 C27.64066406 8.59007812 28.28132813 8.18015625 28.94140625 7.7578125 C40.10467572 0.80364463 50.99317081 -0.70757151 64 0 C65 1 65 1 65.1328125 3.6875 C65.13023437 4.780625 65.12765625 5.87375 65.125 7 C65.12886719 8.6396875 65.12886719 8.6396875 65.1328125 10.3125 C65 13 65 13 64 14 C62.10836008 14.09500424 60.21619889 14.18415174 58.32299805 14.23999023 C50.74407165 14.47655788 44.66110139 15.08604907 38 19 C37.30519531 19.29003906 36.61039062 19.58007812 35.89453125 19.87890625 C33.52180074 21.28297565 33.04504905 22.48259295 32 25 C31.65839844 25.63679688 31.31679688 26.27359375 30.96484375 26.9296875 C30.62582031 27.57164062 30.28679687 28.21359375 29.9375 28.875 C29.59589844 29.51179688 29.25429688 30.14859375 28.90234375 30.8046875 C26.43100049 36.81721959 26.79076029 43.47342338 26.68359375 49.8671875 C26.66281265 50.90191193 26.64203156 51.93663635 26.62062073 53.00271606 C26.5554718 56.29341274 26.49640191 59.58418617 26.4375 62.875 C26.3942818 65.11198696 26.35066647 67.34896629 26.30664062 69.5859375 C26.19982606 75.0572139 26.09846173 80.52856717 26 86 C31.28 86 36.56 86 42 86 C42 90.62 42 95.24 42 100 C28.14 100 14.28 100 0 100 C0 95.38 0 90.76 0 86 C4.29 86 8.58 86 13 86 C13 62.24 13 38.48 13 14 C8.71 14 4.42 14 0 14 C0 9.38 0 4.76 0 0 Z " fill="#020202" transform="translate(366,471)"/>
</svg>
